<svg xmlns="http://www.w3.org/2000/svg" viewBox="0 0 512 512">
  <rect width="512" height="512" rx="100" fill="#3b82f6"/>
  <g transform="translate(56, 56)">
    <!-- Heart shape representing care -->
    <path d="M200 340c-8.8 0-17.3-3.5-23.5-9.7L76.5 230.3c-32.7-32.7-32.7-85.9 0-118.6 32.7-32.7 85.9-32.7 118.6 0l5 5 5-5c32.7-32.7 85.9-32.7 118.6 0 32.7 32.7 32.7 85.9 0 118.6L223.5 330.3c-6.2 6.2-14.7 9.7-23.5 9.7z" fill="#ffffff"/>
    <!-- Plus sign for medical/care -->
    <rect x="175" y="140" width="50" height="120" rx="10" fill="#3b82f6"/>
    <rect x="140" y="175" width="120" height="50" rx="10" fill="#3b82f6"/>
  </g>
</svg>
