<svg xmlns="http://www.w3.org/2000/svg" viewBox="0 0 512 512">
  <!-- Background circle -->
  <circle cx="256" cy="256" r="256" fill="#2563eb"/>
  
  <!-- Heart with hands (care symbol) -->
  <g transform="translate(256, 256) scale(0.6) translate(-256, -256)">
    <!-- Heart shape -->
    <path d="M256 448l-30.164-27.211C118.718 322.442 48 258.61 48 179.095 48 114.221 97.918 64 162.4 64c36.399 0 70.717 16.742 93.6 43.947C278.882 80.742 313.199 64 349.6 64 414.082 64 464 114.221 464 179.095c0 79.516-70.719 143.348-177.836 241.694L256 448z" fill="#ffffff"/>
    
    <!-- Hands holding heart -->
    <path d="M128 320c-17.673 0-32 14.327-32 32v96c0 17.673 14.327 32 32 32h32c17.673 0 32-14.327 32-32v-96c0-17.673-14.327-32-32-32h-32z" fill="#ffffff" opacity="0.8"/>
    <path d="M352 320c-17.673 0-32 14.327-32 32v96c0 17.673 14.327 32 32 32h32c17.673 0 32-14.327 32-32v-96c0-17.673-14.327-32-32-32h-32z" fill="#ffffff" opacity="0.8"/>
  </g>
  
  <!-- Letter M for MyCare -->
  <text x="256" y="300" font-family="Arial, sans-serif" font-size="120" font-weight="bold" fill="#ffffff" text-anchor="middle">M</text>
</svg>
